<svg xmlns="http://www.w3.org/2000/svg" version="1.1" xmlns:xlink="http://www.w3.org/1999/xlink"  viewBox="0 0 1920 1080" class="overflow-hidden rounded-md drop-shadow-lg transition duration-300 w-85screen rotate-90" style="overflow: hidden; height: 85vh;"><rect width="1920" height="1080" fill="#453e35"/><g clip-path="url(&quot;#SvgjsClipPath1369&quot;)"><g transform="matrix(-0.8679160172561876,-0.7544678833390834,0.7544678833390834,-0.8679160172561876,1359.7456285467492,1722.4455891823166)"><path d="M0,-1080C8.785483296604832,-963.1475288962617,55.49316465436302,-597.2635637700133,52.712899779629,-378.88517337757014C49.932634904894975,-160.50678298512693,-14.80154994754587,23.857906163635903,-16.681589248404123,230.27034235465928C-18.561628549262377,436.68277854568265,43.12458598120703,637.7031936873935,41.43266397447948,859.5894437685699C39.74074196775194,1081.4756938497462,-19.927677293022796,1344.8527501364792,-26.833121288769377,1561.5878428417177C-33.73856528451596,1778.3229355469562,-4.472186881461563,2060.2646404736197,0,2160L 1920 2160 L 1920 -1080 Z" fill="url(&quot;#SvgjsLinearGradient1360&quot;)"/><path d="M213.33333333333331,-1080C213.6019864960041,-993.3537791489803,205.1202718434506,-721.121147158246,214.945252309358,-560.1226748938818C224.7702327752654,-399.12420262951764,277.8744492585062,-261.6529905812944,272.2832161287778,-114.00916641381482C266.69198299904934,33.6346577536647,196.39061293048536,170.112944165041,181.39785353098725,325.7402701109953C166.40509413148914,481.36759605694965,171.79189072799525,661.2788707560114,182.32665973178908,819.754789261911C192.8614287355829,978.2307077678106,247.40073164345083,1130.61963076519,244.6064675537502,1276.5957811463927C241.8122034640496,1422.5719315275953,170.77326423032156,1548.3776550735254,165.5610751935854,1695.6116915491266C160.34888615684923,1842.8457280247278,205.37129031004199,2082.6019485915212,213.33333333333331,2160L 1920 2160 L 1920 -1080 Z" fill="url(&quot;#SvgjsLinearGradient1361&quot;)"/><path d="M426.66666666666663,-1080C419.26866498132426,-938.9058712784811,383.5202041490027,-501.62867305953114,382.27865655461244,-233.43522767088606C381.03710896022216,34.75821771775898,420.839147091424,261.49358881670344,419.2173811003249,529.1606723318703C417.59561510922583,796.8277558470371,371.30651301362775,1100.76071880876,372.54806060801803,1372.567273420115C373.7896082024083,1644.37382803147,417.64689899022517,2028.7612122366859,426.66666666666663,2160L 1920 2160 L 1920 -1080 Z" fill="url(&quot;#SvgjsLinearGradient1362&quot;)"/><path d="M640,-1080C646.0258107539048,-976.1243087432347,683.7713535926855,-677.2530796820853,676.1548645234287,-456.7458524594081C668.538375454172,-236.238625236731,603.8220907558273,13.308707924969838,594.3010655844591,243.04336333606292C584.780040413091,472.778018747156,614.674779890854,702.3095775637656,619.0287134952197,921.6620800071505C623.3826470995854,1141.0145824505353,616.9294527931902,1352.7687246642306,620.4246672106535,1559.158377996372C623.9198816281169,1765.5480313285136,636.7374445351089,2059.859729666062,640,2160L 1920 2160 L 1920 -1080 Z" fill="url(&quot;#SvgjsLinearGradient1363&quot;)"/><path d="M853.3333333333333,-1080C851.8535210191734,-995.1406330757297,841.0026667731225,-728.3175717889548,844.4544594483742,-570.8437984543782C847.9062521236259,-413.37002511980165,862.0985509857953,-277.23349470663106,874.0440893848431,-135.15735999254062C885.9896277838909,6.918774721549823,917.9082582063894,139.98761458860434,916.1276898426613,281.61300983016446C914.3471214789332,423.23840507172457,864.6192609857009,560.8429235510754,863.3606792024743,714.5950114568201C862.1020974192478,868.3470993625648,916.2303829846118,1033.6682814898943,908.5761991433022,1204.1255372646324C900.9220153019927,1374.5827930393705,826.6427204562789,1578.0261356493538,817.4355761546174,1737.3385461052485C808.2284318529559,1896.6509565611432,847.3503738035473,2089.5564243508747,853.3333333333333,2160L 1920 2160 L 1920 -1080 Z" fill="url(&quot;#SvgjsLinearGradient1364&quot;)"/><path d="M1066.6666666666667,-1080C1072.832485387159,-980.6763771626696,1109.84302105363,-663.3364985446207,1103.6615789896202,-484.05826297601766C1097.4801369256104,-304.78002740741465,1025.6581479534811,-182.53673448339356,1029.5780142826081,-4.330586588382118C1033.4978806117351,173.87556130662932,1113.329680060799,394.221289725538,1127.180776964382,585.178624394051C1141.0318738679648,776.135959062564,1117.6243797581512,969.4200185314531,1112.6845957041046,1141.4134214226958C1107.744811650058,1313.4068243139384,1105.2117274796747,1447.3746119786229,1097.5420726401017,1617.1390417415068C1089.8724178005286,1786.9034715043908,1071.8125676622392,2069.5231736235846,1066.6666666666667,2160L 1920 2160 L 1920 -1080 Z" fill="url(&quot;#SvgjsLinearGradient1365&quot;)"/><path d="M1280,-1080C1279.7014897830954,-939.3928712940507,1286.0188329680702,-508.8122893237378,1278.2089386985726,-236.3572277643042C1270.399044429075,36.09783379512933,1239.2988564618247,294.6743971442506,1233.140634383015,554.7303693566012C1226.9824123042051,814.7863415689517,1233.4497119562163,1056.4336670692326,1241.259606225714,1323.978605509799C1249.0695004952115,1591.5235439503656,1273.5432677042857,2020.6631009182997,1280,2160L 1920 2160 L 1920 -1080 Z" fill="url(&quot;#SvgjsLinearGradient1366&quot;)"/><path d="M1493.3333333333333,-1080C1488.5943340366318,-998.3297042509248,1459.7885844292055,-767.2863894556858,1464.8993375531247,-589.9782255055485C1470.010090677044,-412.67006155541117,1509.8912632809731,-208.2668839070654,1523.9978520768495,-16.15101629917575C1538.104440872726,175.9648513087139,1562.4683706631324,375.0694067769796,1549.5388703283832,562.7169801417895C1536.609369993634,750.3645535065993,1465.8393591180354,940.4235221039085,1446.4208500683542,1109.7344238896833C1427.002341018673,1279.0453256754581,1425.2090688194658,1403.5381281713858,1433.0278160302955,1578.5823908564385C1440.8465632411253,1753.6266535414911,1483.282413782827,2063.0970651427397,1493.3333333333333,2160L 1920 2160 L 1920 -1080 Z" fill="url(&quot;#SvgjsLinearGradient1367&quot;)"/><path d="M1706.6666666666665,-1080C1699.0279053243476,-1005.8688853783183,1654.9016855836492,-793.4556158130207,1660.8340986127535,-635.2133122699097C1666.7665116418577,-476.9710087267987,1732.77279194098,-291.2493453074439,1742.2611448412924,-130.54617874133376C1751.749497741605,30.156987824776365,1720.5898744660035,184.04734508885585,1717.7642160146293,329.005687126751C1714.938557563255,473.96402916464615,1717.172646119296,587.5912684242248,1725.3071941330466,739.2038734860373C1733.4417421467972,890.8164785478498,1773.62176507805,1076.9195135847558,1766.5715040971331,1238.6813174976255C1759.5212431162163,1400.4431214104952,1692.9897678192897,1556.22158321286,1683.0056282475452,1709.7746969632558C1673.0214886758008,1863.3278107136516,1702.7231602634797,2084.962449493876,1706.6666666666665,2160L 1920 2160 L 1920 -1080 Z" fill="url(&quot;#SvgjsLinearGradient1368&quot;)"/></g></g><defs><linearGradient x1="0.1" y1="0" x2="0" y2="1" id="SvgjsLinearGradient1360"><stop stop-color="#453e35" offset="0"/><stop stop-color="#453b35" offset="0"/></linearGradient><linearGradient x1="0.1" y1="0" x2="0" y2="1" id="SvgjsLinearGradient1361"><stop stop-color="#5d5448" offset="0"/><stop stop-color="#5d5048" offset="0.1111111111111111"/></linearGradient><linearGradient x1="0.1" y1="0" x2="0" y2="1" id="SvgjsLinearGradient1362"><stop stop-color="#75695a" offset="0"/><stop stop-color="#75645a" offset="0.2222222222222222"/></linearGradient><linearGradient x1="0.1" y1="0" x2="0" y2="1" id="SvgjsLinearGradient1363"><stop stop-color="#8d7f6d" offset="0"/><stop stop-color="#8d7a6d" offset="0.3333333333333333"/></linearGradient><linearGradient x1="0.1" y1="0" x2="0" y2="1" id="SvgjsLinearGradient1364"><stop stop-color="#a19484" offset="0"/><stop stop-color="#a18f84" offset="0.4444444444444444"/></linearGradient><linearGradient x1="0.1" y1="0" x2="0" y2="1" id="SvgjsLinearGradient1365"><stop stop-color="#b3a99c" offset="0"/><stop stop-color="#b3a59c" offset="0.5555555555555556"/></linearGradient><linearGradient x1="0.1" y1="0" x2="0" y2="1" id="SvgjsLinearGradient1366"><stop stop-color="#c6beb4" offset="0"/><stop stop-color="#c6bbb4" offset="0.6666666666666666"/></linearGradient><linearGradient x1="0.1" y1="0" x2="0" y2="1" id="SvgjsLinearGradient1367"><stop stop-color="#d8d3cc" offset="0"/><stop stop-color="#d8d1cc" offset="0.7777777777777778"/></linearGradient><linearGradient x1="0.1" y1="0" x2="0" y2="1" id="SvgjsLinearGradient1368"><stop stop-color="#ebe8e5" offset="0"/><stop stop-color="#ebe7e5" offset="0.8888888888888888"/></linearGradient><clipPath id="SvgjsClipPath1369"><rect width="1920" height="1080"/></clipPath></defs></svg>