<svg xmlns="http://www.w3.org/2000/svg" version="1.1" xmlns:xlink="http://www.w3.org/1999/xlink"  viewBox="0 0 1920 1080" class="overflow-hidden rounded-md drop-shadow-lg transition duration-300" style="overflow: hidden; height: 85vh;"><rect width="1920" height="1080" fill="#453e35"/><g clip-path="url(&quot;#SvgjsClipPath1594&quot;)"><g transform="matrix(0.8272407703894488,0.7988571260278468,-0.7988571260278468,0.8272407703894488,596.7961867627919,-671.5989580635442)"><path d="M0,-1080C-0.6023035214238869,-967.5856309233089,-8.111642874486382,-621.4944335684096,-3.6138211285433215,-405.51378553985387C0.8840006173997397,-189.53313751129815,20.227270653581133,13.467577276905615,26.98693047565837,215.8838881713343C33.7465902977356,418.30019906576297,33.38993668998165,589.3375958077246,36.944137803920086,808.9840798267182C40.49833891785852,1028.630563845712,54.46949345994231,1308.593472256416,48.312137159288966,1533.7627922852962C42.15478085863562,1758.9321123141765,8.052022859881495,2055.6271320475494,0,2160L 1920 2160 L 1920 -1080 Z" fill="url(&quot;#SvgjsLinearGradient1588&quot;)"/><path d="M320,-1080C309.7363887301674,-986.6562529486297,264.23121998041285,-696.2435651467722,258.4183323810042,-519.9375176917783C252.60544478159548,-343.6314702367845,277.8715722979889,-203.7912122739039,285.1226744035479,-22.163715270036874C292.37377650910685,159.46378173383016,285.6686418012439,391.1065545660409,301.924945014358,569.827464331424C318.1812482274721,748.5483740968072,374.404250715289,878.2664544074515,382.6604936822324,1050.1617433222618C390.91673664917585,1222.0570322370722,361.9058184297238,1416.2261550406631,351.4624028160184,1601.1991978202861C341.01898720231304,1786.1722405999092,325.24373380266974,2066.8665329700475,320,2160L 1920 2160 L 1920 -1080 Z" fill="url(&quot;#SvgjsLinearGradient1589&quot;)"/><path d="M640,-1080C646.6203407905808,-998.9408756662326,680.7215165691107,-770.9043742993613,679.722044743485,-593.6452539973953C678.7225729178592,-416.3861336954294,650.59971849057,-210.33730264493192,634.0031690462457,-16.44527818820461C617.4066196019214,177.4467462685227,585.9105756068252,383.6586344143451,580.1427480775392,569.7068927429684C574.3749205482532,755.7551510715917,580.7599599387014,933.0103142609214,599.3962038705296,1099.8442717835353C618.0324478023578,1266.6782293061492,685.1929123135965,1394.0180165092413,691.9602116685082,1570.710637878652C698.72751102342,1747.4032592480628,648.6600352780847,2061.785106313109,640,2160L 1920 2160 L 1920 -1080 Z" fill="url(&quot;#SvgjsLinearGradient1590&quot;)"/><path d="M960,-1080C953.3796292846598,-983.9225346789278,929.0314786803874,-675.1901477822913,920.2777757079591,-503.5352080735669C911.5240727355308,-331.88026836484244,911.1571397514298,-222.61108195512972,907.4777821654302,-50.07036174765355C903.7984245794306,122.47035845982262,895.6092549281819,342.5903589985678,898.2016301919618,531.7091131712901C900.7940054557417,720.8278673440125,908.8715875039553,909.010607919714,923.0320337481096,1084.6421632886806C937.1924799922639,1260.2737186576474,977.0029799482394,1406.2721392665371,983.1643076568878,1585.4984453850902C989.3256353655362,1764.7247515036433,963.8607179428146,2064.249740897515,960,2160L 1920 2160 L 1920 -1080 Z" fill="url(&quot;#SvgjsLinearGradient1591&quot;)"/><path d="M1280,-1080C1290.6494995330033,-1005.0795218927789,1344.8239194982061,-774.052396079274,1343.8969971980202,-630.4771313566735C1342.9700748978344,-486.9018666340729,1285.368292747528,-348.0031244189015,1274.438466198884,-218.54841166439687C1263.5086396502402,-89.09369890989223,1274.5728521154606,26.700364399465926,1278.3180379061566,146.25114517035436C1282.0632236968527,265.8019259412428,1306.5236032929813,357.4421206234476,1296.9095809430605,498.75627296093376C1287.2955585931397,640.0704252984199,1220.5435158468736,849.1502300491888,1220.6339038066321,994.1360591952714C1220.7242917663907,1139.121888341354,1294.4665275199065,1238.5791854374659,1297.4519087016122,1368.671247837429C1300.4372898833178,1498.7633102373923,1241.4548423471342,1642.8003082346222,1238.5461908968655,1774.6884335950508C1235.6375394465967,1906.5765589554794,1273.0910318161443,2095.7814055991753,1280,2160L 1920 2160 L 1920 -1080 Z" fill="url(&quot;#SvgjsLinearGradient1592&quot;)"/><path d="M1600,-1080C1603.1380870490425,-940.7657416977439,1616.2455588912017,-515.9392549112317,1618.828522294255,-244.59445018646326C1621.4114856973083,26.75035453830523,1627.8587319406508,284.2076711348388,1615.4977804183204,548.068828348611C1603.13682889599,811.9299855623831,1547.2457765633262,1069.9172978209383,1544.662813160273,1338.5724930961699C1542.0798497572196,1607.2276883714014,1590.777135526712,2023.0954155160284,1600,2160L 1920 2160 L 1920 -1080 Z" fill="url(&quot;#SvgjsLinearGradient1593&quot;)"/></g></g><defs><linearGradient x1="0.1" y1="0" x2="0" y2="1" id="SvgjsLinearGradient1588"><stop stop-color="#453e35" offset="0"/><stop stop-color="#453b35" offset="0"/></linearGradient><linearGradient x1="0.1" y1="0" x2="0" y2="1" id="SvgjsLinearGradient1589"><stop stop-color="#695e51" offset="0"/><stop stop-color="#695a51" offset="0.16666666666666666"/></linearGradient><linearGradient x1="0.1" y1="0" x2="0" y2="1" id="SvgjsLinearGradient1590"><stop stop-color="#8d7f6d" offset="0"/><stop stop-color="#8d7a6d" offset="0.3333333333333333"/></linearGradient><linearGradient x1="0.1" y1="0" x2="0" y2="1" id="SvgjsLinearGradient1591"><stop stop-color="#aa9f90" offset="0"/><stop stop-color="#aa9b90" offset="0.5"/></linearGradient><linearGradient x1="0.1" y1="0" x2="0" y2="1" id="SvgjsLinearGradient1592"><stop stop-color="#c6beb4" offset="0"/><stop stop-color="#c6bbb4" offset="0.6666666666666666"/></linearGradient><linearGradient x1="0.1" y1="0" x2="0" y2="1" id="SvgjsLinearGradient1593"><stop stop-color="#e1ddd8" offset="0"/><stop stop-color="#e1dbd8" offset="0.8333333333333334"/></linearGradient><clipPath id="SvgjsClipPath1594"><rect width="1920" height="1080"/></clipPath></defs></svg>