<svg xmlns="http://www.w3.org/2000/svg" viewBox="0 0 1440 320">
  <path fill="#453e35" fill-opacity="1" d="M0,128L21.8,112C43.6,96,87,64,131,74.7C174.5,85,218,139,262,154.7C305.5,171,349,149,393,149.3C436.4,149,480,171,524,160C567.3,149,611,107,655,101.3C698.2,96,742,128,785,117.3C829.1,107,873,53,916,74.7C960,96,1004,192,1047,229.3C1090.9,267,1135,245,1178,234.7C1221.8,224,1265,224,1309,197.3C1352.7,171,1396,117,1418,90.7L1440,64L1440,320L1418.2,320C1396.4,320,1353,320,1309,320C1265.5,320,1222,320,1178,320C1134.5,320,1091,320,1047,320C1003.6,320,960,320,916,320C872.7,320,829,320,785,320C741.8,320,698,320,655,320C610.9,320,567,320,524,320C480,320,436,320,393,320C349.1,320,305,320,262,320C218.2,320,175,320,131,320C87.3,320,44,320,22,320L0,320Z"></path>
</svg>