<svg xmlns="http://www.w3.org/2000/svg" version="1.1" xmlns:xlink="http://www.w3.org/1999/xlink" viewBox="0 0 3840 2160" class="overflow-hidden rounded-md drop-shadow-lg transition duration-300" ><rect width="3840" height="2160" fill="#453e35"/><g clip-path="url(&quot;#SvgjsClipPath1367&quot;)"><g transform="matrix(1.0585805814703058,-0.4493407977626659,0.4493407977626659,1.0585805814703058,-596.3584025115197,788.6950786972951)"><path d="M0,-2160C15.369534599866578,-1937.583541680085,81.87316132842645,-1245.7329324756402,92.21720759919947,-825.5012500805108C102.56125386997249,-405.26956768538133,85.42161358112632,-53.209255752257775,62.064277624638095,361.3900943707765C38.70694166814987,775.9894444938109,-49.47378075343532,1218.498648014516,-47.92680813972993,1662.094850657695C-46.379835526024536,2105.691053300874,63.3583119502488,2579.9831186727993,71.34611330687045,3022.96731022985C79.33391466349211,3465.951501786901,11.891018884478408,4103.8278850383085,0,4320L 3840 4320 L 3840 -2160 Z" fill="url(&quot;#SvgjsLinearGradient1357&quot;)"/><path d="M384,-2160C392.2495026628501,-1887.7901411156954,422.46628849215574,-1065.5645828372972,433.4970159771006,-526.7408466941727C444.52774346204546,12.08288944895196,463.2692009765595,540.4718548832009,450.1843649096693,1072.9424168587477C437.0995288427791,1605.4129788342946,366.0187270607041,2126.906261302233,354.98799957575926,2668.082525159108C343.9572720908144,3209.2587890159834,379.1646665959599,4044.6804208598514,384,4320L 3840 4320 L 3840 -2160 Z" fill="url(&quot;#SvgjsLinearGradient1358&quot;)"/><path d="M768,-2160C760.6235323881256,-1993.1098014305803,726.2028830726175,-1534.6562678429193,723.7411943287534,-1158.6588085834824C721.2795055848893,-782.6613493240454,736.4692242667264,-261.79625082352214,753.2298675368153,95.98475555662162C769.9905108069041,453.7657619367654,818.6764034169397,646.612723133466,824.3050539492865,988.0272296973804C829.9337044816333,1329.4417362612949,780.1798455252018,1780.8143351482336,787.0017707308959,2144.4717949401083C793.8236959365901,2508.129254731983,868.4035669719337,2807.3839542719797,865.236605183451,3169.9719884486285C862.0696433949684,3532.5600226252773,784.2061008639085,4128.328664741438,768,4320L 3840 4320 L 3840 -2160 Z" fill="url(&quot;#SvgjsLinearGradient1359&quot;)"/><path d="M1152,-2160C1135.3311798434943,-1890.183913358829,1049.6671475288176,-1087.1682139288623,1051.9870790609662,-541.103480152974C1054.3070105931147,4.961253622914228,1153.0564366961885,579.3461158534152,1165.9195891928916,1116.3884026553296C1178.7827416895948,1653.4306894572442,1131.4859255733338,2147.214974434401,1129.1659940411853,2681.1502406585128C1126.8460625090368,3215.0855068826245,1148.1943323401974,4046.8583734430854,1152,4320L 3840 4320 L 3840 -2160 Z" fill="url(&quot;#SvgjsLinearGradient1360&quot;)"/><path d="M1536,-2160C1527.3575451881122,-1891.3514052181547,1476.474658423237,-1083.9309871011924,1484.1452711286734,-548.1084313089283C1491.8158838341096,-12.285875516664191,1566.6790674000422,525.9875580314607,1582.0236762326172,1054.9353347535848C1597.3682850651921,1583.883111475709,1583.8835368295595,2081.400784816081,1576.2129241241232,2625.5782290238167C1568.542311418687,3169.7556732315525,1542.7021540206872,4037.5963715039693,1536,4320L 3840 4320 L 3840 -2160 Z" fill="url(&quot;#SvgjsLinearGradient1361&quot;)"/><path d="M1920,-2160C1925.2599183897878,-2017.2704503712055,1945.8790098044972,-1609.700337242564,1951.5595103387275,-1303.6227022272326C1957.2400108729578,-997.5450672119011,1948.6557966276205,-627.5914569205795,1954.0830032053814,-323.53418990801185C1959.5102097831423,-19.47692289544426,1994.36022248771,211.63920851080957,1984.122749805293,520.7208998481731C1973.8852771228762,829.8025911855366,1889.8406316504816,1188.6567760893874,1892.6581671108804,1530.9559581161693C1895.4757025712793,1873.2551401429512,2009.7881011683146,2249.935697316956,2001.027962567687,2574.5159920088636C1992.2678239670593,2899.096286700771,1853.6019959350624,3187.5237249357583,1840.0973355071146,3478.4377262676144C1826.5926750791668,3769.3517275994705,1906.6828892511858,4179.739621044602,1920,4320L 3840 4320 L 3840 -2160 Z" fill="url(&quot;#SvgjsLinearGradient1362&quot;)"/><path d="M2304,-2160C2301.0702296370628,-1995.917855896617,2276.414082304672,-1499.3893987956965,2286.4213778223757,-1175.5071353797025C2296.4286733400795,-851.6248719637085,2368.130368890629,-529.1561551886928,2364.043773106224,-216.70641950403584C2359.9571773218186,95.74331618062106,2258.4528158262206,397.54027628905925,2261.9018031159453,699.191278728239C2265.35079040567,1000.8422811674188,2370.578904501871,1304.8534158142922,2384.7376968445724,1593.1995951310428C2398.896489187274,1881.5457744477933,2374.5473090768273,2123.045895306548,2346.8545571721534,2429.268354628742C2319.1618052674794,2735.490813950936,2225.7236116118866,3115.4124101689968,2218.5811854165277,3430.5343510642065C2211.4387592211688,3745.656291959416,2289.7635309027546,4171.755725177368,2304,4320L 3840 4320 L 3840 -2160 Z" fill="url(&quot;#SvgjsLinearGradient1363&quot;)"/><path d="M2688,-2160C2671.119739676469,-2018.2729605613545,2580.9515548873533,-1603.3891948306193,2586.7184380588155,-1309.637763368127C2592.485321230278,-1015.8863319056347,2718.7983331887426,-735.7580924733361,2722.601299028773,-397.4914112250458C2726.4042648688037,-59.22472997675544,2632.094108579771,394.15689680445416,2609.5362330989983,719.9623241216153C2586.978357618226,1045.7677514387765,2572.5430651981164,1276.416283601893,2587.254046144139,1557.3411526779212C2601.9650270901616,1838.2660217539494,2680.4505169324575,2097.1633795930015,2697.8021187751337,2405.511538577785C2715.15372061781,2713.8596975625683,2692.9973436627183,3088.3486963495848,2691.363657200196,3407.4301065866207C2689.7299707376737,3726.5115168236566,2688.560609533366,4167.905017764437,2688,4320L 3840 4320 L 3840 -2160 Z" fill="url(&quot;#SvgjsLinearGradient1364&quot;)"/><path d="M3072,-2160C3086.1458321212504,-2042.5003908894798,3162.040977810563,-1730.1510093167822,3156.874992727503,-1455.0023453368794C3151.709007644443,-1179.8536813569767,3068.05083916681,-792.1909646692784,3041.0040895016377,-509.1080161205839C3013.9573398364655,-226.02506757188945,2985.2128556623043,-32.33187721181625,2994.594494736469,243.4953459552872C3003.976133810634,519.3225691223906,3098.1306565555738,885.2663389749282,3097.2939239466264,1145.8553228820367C3096.457191337679,1406.4443067891452,2984.264586816659,1540.1573312729743,2989.574099082784,1807.0292493979384C2994.8836113489087,2073.9011675229026,3105.6106260742226,2460.968663110159,3129.1509975433755,2747.086831631822C3152.6913690125284,3033.205000153485,3140.3414941549313,3261.586065799885,3130.816327897702,3523.738260527915C3121.291161640473,3785.8904552559447,3081.8027213162836,4187.289710087985,3072,4320L 3840 4320 L 3840 -2160 Z" fill="url(&quot;#SvgjsLinearGradient1365&quot;)"/><path d="M3456,-2160C3466.948431439985,-2028.6384745818546,3504.1969647113106,-1657.538397628586,3521.6905886399095,-1371.8308474911273C3539.1842125685084,-1086.1232973536687,3569.414618610481,-726.5465213343584,3560.9617435715927,-445.7546991752486C3552.5088685327046,-164.96287701613875,3488.0251438803944,68.2818237362404,3470.9733384065808,312.92008546353196C3453.921532932767,557.5583471908235,3462.880864391261,744.0948222106389,3458.650910728711,1022.0748711885008C3454.420957066161,1300.0549201663625,3433.3985582758833,1701.4568000078305,3445.5936164312798,1980.8003793307032C3457.7886745866763,2260.1439586535757,3514.16339812618,2446.2364296688725,3531.821259661089,2698.136347125737C3549.479121195998,2950.0362645826012,3564.177662250915,3221.889275259512,3551.5407856407337,3492.1998840718893C3538.9039090305523,3762.5104928842666,3471.9234642734555,4182.033314011982,3456,4320L 3840 4320 L 3840 -2160 Z" fill="url(&quot;#SvgjsLinearGradient1366&quot;)"/></g></g><defs><linearGradient x1="0.1" y1="0" x2="0" y2="1" id="SvgjsLinearGradient1357"><stop stop-color="#453e35" offset="0"/><stop stop-color="#453b35" offset="0"/></linearGradient><linearGradient x1="0.1" y1="0" x2="0" y2="1" id="SvgjsLinearGradient1358"><stop stop-color="#5b5146" offset="0"/><stop stop-color="#5b4d46" offset="0.1"/></linearGradient><linearGradient x1="0.1" y1="0" x2="0" y2="1" id="SvgjsLinearGradient1359"><stop stop-color="#706556" offset="0"/><stop stop-color="#706156" offset="0.2"/></linearGradient><linearGradient x1="0.1" y1="0" x2="0" y2="1" id="SvgjsLinearGradient1360"><stop stop-color="#867967" offset="0"/><stop stop-color="#867467" offset="0.3"/></linearGradient><linearGradient x1="0.1" y1="0" x2="0" y2="1" id="SvgjsLinearGradient1361"><stop stop-color="#998c7a" offset="0"/><stop stop-color="#99877a" offset="0.4"/></linearGradient><linearGradient x1="0.1" y1="0" x2="0" y2="1" id="SvgjsLinearGradient1362"><stop stop-color="#aa9f90" offset="0"/><stop stop-color="#aa9b90" offset="0.5"/></linearGradient><linearGradient x1="0.1" y1="0" x2="0" y2="1" id="SvgjsLinearGradient1363"><stop stop-color="#bab1a6" offset="0"/><stop stop-color="#baaea6" offset="0.6"/></linearGradient><linearGradient x1="0.1" y1="0" x2="0" y2="1" id="SvgjsLinearGradient1364"><stop stop-color="#cbc4bc" offset="0"/><stop stop-color="#cbc1bc" offset="0.7"/></linearGradient><linearGradient x1="0.1" y1="0" x2="0" y2="1" id="SvgjsLinearGradient1365"><stop stop-color="#dcd7d1" offset="0"/><stop stop-color="#dcd5d1" offset="0.8"/></linearGradient><linearGradient x1="0.1" y1="0" x2="0" y2="1" id="SvgjsLinearGradient1366"><stop stop-color="#edeae7" offset="0"/><stop stop-color="#ede9e7" offset="0.9"/></linearGradient><clipPath id="SvgjsClipPath1367"><rect width="3840" height="2160"/></clipPath></defs></svg>